inDegrees=no
num_controls=7
num_derivatives=13
num_iterations=82
num_multipliers=7
num_parameters=0
num_slacks=7
num_states=26
objective=0.453026
objective_accelerations=0.048344
objective_balance=0.001029
objective_effort=0.037586
objective_height=0.360434
objective_ligament=0.005634
solver_duration=905.412468
status=Solve_Succeeded
success=true
DataType=double
version=3
OpenSimVersion=4.5
endheader
time	/jointset/ground_pelvis/pelvis_tilt/value	/jointset/ground_pelvis/pelvis_tx/value	/jointset/ground_pelvis/pelvis_ty/value	/jointset/hip_r/hip_flexion_r/value	/jointset/hip_r/hip_adduction_r/value	/jointset/hip_r/hip_rotation_r/value	/jointset/back/lumbar_extension/value	/jointset/patellofemoral_r/patellar_flexion_r/value	/jointset/knee_r/knee_flexion_r/value	/jointset/knee_r/knee_adduction_r/value	/jointset/knee_r/knee_rotation_r/value	/jointset/ankle_r/ankle_angle_r/value	/jointset/subtalar_r/subtalar_angle_r/value	/jointset/ground_pelvis/pelvis_tilt/speed	/jointset/ground_pelvis/pelvis_tx/speed	/jointset/ground_pelvis/pelvis_ty/speed	/jointset/hip_r/hip_flexion_r/speed	/jointset/hip_r/hip_adduction_r/speed	/jointset/hip_r/hip_rotation_r/speed	/jointset/back/lumbar_extension/speed	/jointset/patellofemoral_r/patellar_flexion_r/speed	/jointset/knee_r/knee_flexion_r/speed	/jointset/knee_r/knee_adduction_r/speed	/jointset/knee_r/knee_rotation_r/speed	/jointset/ankle_r/ankle_angle_r/speed	/jointset/subtalar_r/subtalar_angle_r/speed	/forceset/tau_hip_flexion_r	/forceset/tau_hip_adduction_r	/forceset/tau_hip_rotation_r	/forceset/tau_knee_flexion_r	/forceset/tau_ankle_angle_r	/forceset/tau_subtalar_angle_r	/forceset/tau_lumbar_extension	lambda_cid13_p0	lambda_cid14_p0	lambda_cid14_p1	lambda_cid14_p2	lambda_cid14_p3	lambda_cid14_p4	lambda_cid14_p5	/jointset/ground_pelvis/pelvis_tilt/accel	/jointset/ground_pelvis/pelvis_tx/accel	/jointset/ground_pelvis/pelvis_ty/accel	/jointset/hip_r/hip_flexion_r/accel	/jointset/hip_r/hip_adduction_r/accel	/jointset/hip_r/hip_rotation_r/accel	/jointset/back/lumbar_extension/accel	/jointset/patellofemoral_r/patellar_flexion_r/accel	/jointset/knee_r/knee_flexion_r/accel	/jointset/knee_r/knee_adduction_r/accel	/jointset/knee_r/knee_rotation_r/accel	/jointset/ankle_r/ankle_angle_r/accel	/jointset/subtalar_r/subtalar_angle_r/accel	gamma_cid13_p0	gamma_cid14_p0	gamma_cid14_p1	gamma_cid14_p2	gamma_cid14_p3	gamma_cid14_p4	gamma_cid14_p5
1	-0.223256900617506	-0.01378642395656803	0.6331429543627621	1.425221339786928	-0.2387846477238775	-0.0856292553802164	-0.785397564055172	1.518653065626038	1.518653065626	-0.1745323361743878	0.1745267292532383	0.4362548275297686	0.1748449709723117	0.06849043684932768	0.005071131879881404	0.01564786277265929	-0.1002417365378713	-0.0009328375573043363	-0.003208386018161655	1.068716200281793e-05	-0.01891223394600309	-0.01891223394600517	0.003186848699006917	-0.0001299791258674059	0.01281829945965829	0.004899310178443824	-0.3289941497539197	0.03959613635459917	0.01019876018887802	-0.4698535590016223	-0.01081916339144369	-0.0001687358097953171	0.3560991812582027	-0.04096153673375901	-55.93703289975547	-14.851300613016	8.482391807274873	8.128231696493627	-771.1441158734863	61.07433542799929	1.248724868069139	0.1389418071586696	1.855175357287108	-5.499427721435699	0.2764402857137017	-0.6721792925768938	-0.005767793445186398	-5.134649251652855	-5.134649251652385	0.6093841329898164	-0.04397158607903611	-1.030538860454506	0.009280097265852962	1.782172166427093e-09	2.6054459163708e-09	1.326577836439429e-08	1.161514768088973e-08	-1.810674091216577e-09	-5.081478744871818e-09	2.53987857918401e-08
1.01	-0.2225105519553486	-0.01372864067185761	0.6333919878244018	1.423945140716581	-0.2387802962804235	-0.08569205899221821	-0.7853954883196146	1.518207830222186	1.51820783022215	-0.1744670169514136	0.1745230476133043	0.436331617208283	0.1748941550783513	0.08074282809356553	0.006501025082612023	0.03415073136602429	-0.1549650130402533	0.00179182684742588	-0.009308357755935644	0.0005582181902950323	-0.07011602070856618	-0.0701160207085656	0.009932047928826333	-0.0005929961279034828	0.002556273098387187	0.004923267268513394	-0.3294838020704018	0.0396119271990124	0.01025089460335897	-0.4697103408670733	-0.01107550053061129	-0.0001446190534709872	0.3568507392571585	-0.04095848079157451	-56.03361167387196	-14.85201446951645	8.4759693600266	7.987609320182313	-771.5051814291733	61.07986360396964	1.208027926406579	0.1473372869912334	1.846625662340027	-5.45381630340426	0.2687896987853357	-0.5723072023899458	0.1080772863733574	-5.110420560069653	-5.110420560069606	0.7153457596268841	-0.04545281515793165	-1.021539119147121	-0.003172285285290554	5.408003766443841e-09	8.016902578427772e-09	3.913612836173846e-08	3.904990494960928e-08	-3.943288966829351e-09	-1.10380089688887e-08	7.742974723763312e-08
1.02	-0.2216427730459885	-0.01365609361308791	0.633825806582371	1.422122701143456	-0.2387490361567391	-0.08581454253918608	-0.785383324526684	1.517251121516406	1.517251121516368	-0.1743325941477899	0.1745151385917813	0.4363062857041963	0.1749431535952588	0.09277648629002137	0.008023886691740735	0.05260492203855128	-0.2094898370932305	0.004448898489458821	-0.01514437301420103	0.002028298634862382	-0.1212068943315945	-0.1212068943315947	0.017007564824599	-0.0009754554456242874	-0.007605937070231682	0.004862192352074433	-0.3299734543868854	0.03962771804344284	0.01030302901779807	-0.4695671227325273	-0.01133183766977241	-0.0001205022971100234	0.3576022972561143	-0.04096291482102518	-56.13794913364648	-14.84980371015239	8.464187926828183	7.85052735658673	-771.9905132513537	61.11944047823395	1.204978258512725	0.1575354884383112	1.845439773119506	-5.459737231554745	0.2629217331742455	-0.6193879966752176	0.1787420898096326	-5.112066623745887	-5.112066623746117	0.6754476661804157	-0.02786004921598661	-1.01057562192401	-0.007726304035828743	1.149324441594998e-08	1.723472625586394e-08	7.117248808713014e-08	8.312210606890913e-08	-8.983530774288092e-09	-1.831269115814753e-08	1.5395442713968e-07
1.03	-0.2206558910361986	-0.01356787354025521	0.6344438755483578	1.41975626414516	-0.2386915326182908	-0.08599409934491492	-0.7853517397775658	1.51578399144642	1.515783991446315	-0.1741257793545107	0.1745038304423892	0.4361796246663647	0.1749910282083847	0.1045473917663947	0.00963364216647747	0.07099571038899527	-0.2637365305758346	0.007042892863112085	-0.02072805382551206	0.004455894281041478	-0.1722080910425316	-0.172208091042532	0.02440526169280929	-0.001273833932740743	-0.01772995412911941	0.004692447151664786	-0.3302453062204471	0.03967070539591395	0.01041306346557078	-0.4691924196346489	-0.01163297051056797	-0.0001116288651277203	0.3581939163685341	-0.04098047503149117	-56.24388614002436	-14.85258962072186	8.451029143198301	7.775574835997599	-772.227008786483	61.11978691544798	1.155273500276514	0.1647198792708175	1.833919086192772	-5.397975522822259	0.2563171886564374	-0.5220082827951485	0.2998547653501861	-5.092495459063204	-5.092495459063151	0.7794083187716369	-0.02894097893060099	-1.013866784497657	-0.02460976526922371	1.760358107616521e-08	2.649139041304889e-08	1.032717662791346e-07	1.273640770234191e-07	-1.405344224431671e-08	-2.560082387766393e-08	2.307290429443418e-07
1.04	-0.21955287461003	-0.01346315105221948	0.6352454565418862	1.416849192188794	-0.2386083533562706	-0.08622832299063088	-0.785290861779303	1.513807179556464	1.51380717955629	-0.1738434920682223	0.1744899156620404	0.4359516130506072	0.1750366031420609	0.116003369565842	0.01132436973234876	0.08930732754688893	-0.317616828706802	0.00958404320458542	-0.02607774101426642	0.007886948460346845	-0.2231432583252922	-0.2231432583252927	0.03210206342623046	-0.001496781638705177	-0.02787605265306718	0.00440225646223047	-0.3305171580540189	0.03971369274839914	0.01052309791330343	-0.4688177165367733	-0.01193410335135631	-0.0001027554331142705	0.3587855354809458	-0.04100545985514568	-56.35751032829231	-14.85217289241085	8.432163783386571	7.702506860114686	-772.5887848670626	61.15528026099975	1.141992723127543	0.1737299066652015	1.829605534609436	-5.386458161227388	0.2523529267382681	-0.5725892721638969	0.3794337964347963	-5.098860738110584	-5.09886073811081	0.7352686392225726	-0.01277389298558796	-1.014991914936055	-0.03181540184076685	2.350246830786986e-08	3.534705928362891e-08	1.332997334118496e-07	1.710174010103462e-07	-1.877722869770137e-08	-3.215857572555198e-08	3.033235182426463e-07
1.05	-0.2183367387234884	-0.0133410896368703	0.6362297052467077	1.41340512821968	-0.2385000337960914	-0.08651491476320708	-0.7851907592987253	1.511321426828347	1.511321426828304	-0.1734828011118984	0.1744741446786067	0.4356219975808596	0.1750786435750508	0.1271819950249932	0.01310410059352454	0.1075237282760182	-0.3711343518419737	0.01207176825867761	-0.03120409808876051	0.01229383220270987	-0.2739882588935797	-0.2739882588935786	0.04007960697800127	-0.001649152115436066	-0.03805375423576828	0.003985500074002469	-0.3305509223628893	0.03973305139233943	0.01068691669560396	-0.4681576235132161	-0.01216887865110106	-0.0001003726446624857	0.3591962802952679	-0.04103644430466404	-56.42619342781279	-14.84315211001212	8.407867469276317	7.599169973528938	-772.6029868776997	61.16045337714505	1.099534385848469	0.1825180185226488	1.814846766137843	-5.325148997613489	0.2457947687088965	-0.477164205138327	0.4953583450851569	-5.074471394003676	-5.074471394003339	0.8355137858066625	-0.01517145615840303	-1.020165085027089	-0.04960417600351605	2.939474774493356e-08	4.419019705150254e-08	1.632629720739618e-07	2.146523297795364e-07	-2.349019874431591e-08	-3.869350317120164e-08	3.757873641501271e-07
